<svg xmlns="http://www.w3.org/2000/svg" xmlns:xlink="http://www.w3.org/1999/xlink">
    <symbol id="icon-button-up" viewBox="0 0 448 512">
        <path d="M34.9 289.5l-22.2-22.2c-9.4-9.4-9.4-24.6 0-33.9L207 39c9.4-9.4 24.6-9.4 33.9 0l194.3 194.3c9.4 9.4 9.4 24.6 0 33.9L413 289.4c-9.5 9.5-25 9.3-34.3-.4L264 168.6V456c0 13.3-10.7 24-24 24h-32c-13.3 0-24-10.7-24-24V168.6L69.2 289.1c-9.3 9.8-24.8 10-34.3.4z"></path>
    </symbol>
    <symbol id="icon-callback" viewBox="0 0 384 512">
        <path d="M202.021 0C122.202 0 70.503 32.703 29.914 91.026c-7.363 10.58-5.093 25.086 5.178 32.874l43.138 32.709c10.373 7.865 25.132 6.026 33.253-4.148 25.049-31.381 43.63-49.449 82.757-49.449 30.764 0 68.816 19.799 68.816 49.631 0 22.552-18.617 34.134-48.993 51.164-35.423 19.86-82.299 44.576-82.299 106.405V320c0 13.255 10.745 24 24 24h72.471c13.255 0 24-10.745 24-24v-5.773c0-42.86 125.268-44.645 125.268-160.627C377.504 66.256 286.902 0 202.021 0zM192 373.459c-38.196 0-69.271 31.075-69.271 69.271 0 38.195 31.075 69.27 69.271 69.27s69.271-31.075 69.271-69.271-31.075-69.27-69.271-69.27z"></path>
    </symbol>
    <symbol id="icon-close" viewBox="0 0 352 512">
        <path d="M242.72 256l100.07-100.07c12.28-12.28 12.28-32.19 0-44.48l-22.24-22.24c-12.28-12.28-32.19-12.28-44.48 0L176 189.28 75.93 89.21c-12.28-12.28-32.19-12.28-44.48 0L9.21 111.45c-12.28 12.28-12.28 32.19 0 44.48L109.28 256 9.21 356.07c-12.28 12.28-12.28 32.19 0 44.48l22.24 22.24c12.28 12.28 32.2 12.28 44.48 0L176 322.72l100.07 100.07c12.28 12.28 32.2 12.28 44.48 0l22.24-22.24c12.28-12.28 12.28-32.19 0-44.48L242.72 256z"></path>
    </symbol>
    <symbol id="icon-bars" viewBox="0 0 512 512">
        <path fill="currentColor" d="M16 132h416c8.837 0 16-7.163 16-16V76c0-8.837-7.163-16-16-16H16C7.163 60 0 67.163 0 76v40c0 8.837 7.163 16 16 16zm0 160h416c8.837 0 16-7.163 16-16v-40c0-8.837-7.163-16-16-16H16c-8.837 0-16 7.163-16 16v40c0 8.837 7.163 16 16 16zm0 160h416c8.837 0 16-7.163 16-16v-40c0-8.837-7.163-16-16-16H16c-8.837 0-16 7.163-16 16v40c0 8.837 7.163 16 16 16z"></path>
    </symbol>
    <symbol id="icon-viber" viewBox="0 0 512 512" fill="#fff">
        <rect width="512" height="512" rx="15%" fill="#665ca7"/><path fill="none" stroke="#fff" stroke-linecap="round" stroke-width="10" d="M269 186a30 30 0 0 1 31 31m-38-58a64 64 0 0 1 64 67m-73-93a97 97 0 0 1 99 104"/><path fill-rule="evenodd" d="M95 232c0-91 17-147 161-147s161 56 161 147-17 147-161 147l-26-1-53 63c-4 4-8 1-8-3v-69c-6 0-31-12-38-19-22-23-36-40-36-118zm-30 0c0-126 55-177 191-177s191 51 191 177-55 177-191 177c-10 0-18 0-32-2l-38 43c-7 8-28 11-28-13v-42c-6 0-20-6-39-18-19-13-54-44-54-145zm223 42q10-13 24-4l36 27q8 10-7 28t-28 15q-53-12-102-60t-61-104q0-20 25-34 13-9 22 5l25 35q6 12-7 22c-39 15 51 112 73 70z"/>
    </symbol>
    <symbol id="icon-telegram" viewBox="0 0 512 512">
        <rect width="512" height="512" rx="15%" fill="#37aee2"/><path fill="#c8daea" d="M199 404c-11 0-10-4-13-14l-32-105 245-144"/><path fill="#a9c9dd" d="M199 404c7 0 11-4 16-8l45-43-56-34"/><path fill="#f6fbfe" d="M204 319l135 99c14 9 26 4 30-14l55-258c5-22-9-32-24-25L79 245c-21 8-21 21-4 26l83 26 190-121c9-5 17-3 11 4"/>
    </symbol>
    <symbol id="icon-instagram" viewBox="0 0 512 512">
        <path fill="#795548" d="m301 256c0 24.851562-20.148438 45-45 45s-45-20.148438-45-45 20.148438-45 45-45 45 20.148438 45 45zm0 0"/>
        <path fill="#795548" d="m332 120h-152c-33.085938 0-60 26.914062-60 60v152c0 33.085938 26.914062 60 60 60h152c33.085938 0 60-26.914062 60-60v-152c0-33.085938-26.914062-60-60-60zm-76 211c-41.355469 0-75-33.644531-75-75s33.644531-75 75-75 75 33.644531 75 75-33.644531 75-75 75zm86-146c-8.285156 0-15-6.714844-15-15s6.714844-15 15-15 15 6.714844 15 15-6.714844 15-15 15zm0 0"/>
        <path fill="#795548" d="m377 0h-242c-74.4375 0-135 60.5625-135 135v242c0 74.4375 60.5625 135 135 135h242c74.4375 0 135-60.5625 135-135v-242c0-74.4375-60.5625-135-135-135zm45 332c0 49.625-40.375 90-90 90h-152c-49.625 0-90-40.375-90-90v-152c0-49.625 40.375-90 90-90h152c49.625 0 90 40.375 90 90zm0 0"/>
    </symbol>
    <symbol id="icon-vkontakte" viewBox="0 0 64 64">
        <g data-name="32-vk" id="_32-vk"><rect class="cls-1" height="64" rx="11.2" ry="11.2" width="64" fill="#4489c8"/><path fill="#fff" class="cls-2" d="M9.62,19.77H17.3a.79.79,0,0,1,.74.51c.85,2.19,4.38,10.76,7.61,11.46,2.4,0,1.55-11.4-1.5-11.4-.8,0,1.42-1.42,1.57-1.48a16.38,16.38,0,0,1,8.66,0c1.53.64,1.79,2.43,1.83,3.95s-1.7,8,.59,8.7c3,.92,6.86-8.49,7.76-10.8a.79.79,0,0,1,.74-.5h8.55a.8.8,0,0,1,.74,1.11,74.74,74.74,0,0,1-6.31,11.52,1.59,1.59,0,0,0,.16,2C51,37.58,58,45.34,54,45.34H45.37a1.57,1.57,0,0,1-1.18-.53c-1.34-1.48-5.24-5.6-7-5.27-1.46.27-1.6,2.75-1.53,4.37a1.6,1.6,0,0,1-1.48,1.68c-1.53.09-3.62.13-3.81.12-6.1-.39-9.71-4.46-13.16-9A56.33,56.33,0,0,1,8.86,20.83.81.81,0,0,1,9.62,19.77Z"/></g>
    </symbol>
    <symbol id="icon-check"  viewBox="0 0 448 512">
        <path fill="#2fd6d0" d="M400 32H48C21.49 32 0 53.49 0 80v352c0 26.51 21.49 48 48 48h352c26.51 0 48-21.49 48-48V80c0-26.51-21.49-48-48-48zm0 400H48V80h352v352zm-35.864-241.724L191.547 361.48c-4.705 4.667-12.303 4.637-16.97-.068l-90.781-91.516c-4.667-4.705-4.637-12.303.069-16.971l22.719-22.536c4.705-4.667 12.303-4.637 16.97.069l59.792 60.277 141.352-140.216c4.705-4.667 12.303-4.637 16.97.068l22.536 22.718c4.667 4.706 4.637 12.304-.068 16.971z"></path>
    </symbol>
    <symbol id='icon-info' viewBox="0 0 192 512">
        <path fill="currentColor" d="M176 432c0 44.112-35.888 80-80 80s-80-35.888-80-80 35.888-80 80-80 80 35.888 80 80zM25.26 25.199l13.6 272C39.499 309.972 50.041 320 62.83 320h66.34c12.789 0 23.331-10.028 23.97-22.801l13.6-272C167.425 11.49 156.496 0 142.77 0H49.23C35.504 0 24.575 11.49 25.26 25.199z"></path>
    </symbol>
</svg>